<svg width="42" height="42" viewBox="0 0 42 42" fill="none" xmlns="http://www.w3.org/2000/svg">
<g id="ant-design:linkedin-filled">
<path id="Vector" d="M35.6981 5.02979H6.23896C5.5305 5.02979 4.95813 5.60216 4.95813 6.31062V35.7697C4.95813 36.4782 5.5305 37.0506 6.23896 37.0506H35.6981C36.4065 37.0506 36.9789 36.4782 36.9789 35.7697V6.31062C36.9789 5.60216 36.4065 5.02979 35.6981 5.02979ZM14.4563 32.3155H9.70521V17.0336H14.4563V32.3155ZM12.0828 14.9442C11.5381 14.9442 11.0057 14.7827 10.5528 14.4801C10.1 14.1775 9.74701 13.7474 9.53859 13.2443C9.33016 12.7411 9.27562 12.1874 9.38188 11.6532C9.48813 11.119 9.75041 10.6283 10.1355 10.2432C10.5207 9.85809 11.0113 9.59581 11.5455 9.48956C12.0797 9.3833 12.6334 9.43784 13.1366 9.64626C13.6398 9.85469 14.0699 10.2077 14.3724 10.6605C14.675 11.1134 14.8365 11.6458 14.8365 12.1904C14.8325 13.7114 13.5997 14.9442 12.0828 14.9442ZM32.2438 32.3155H27.4968V24.8827C27.4968 23.1095 27.4647 20.832 25.0272 20.832C22.5576 20.832 22.1773 22.7613 22.1773 24.7546V32.3155H17.4342V17.0336H21.9892V19.1229H22.0532C22.6856 17.9222 24.2346 16.6533 26.5481 16.6533C31.3593 16.6533 32.2438 19.8194 32.2438 23.9341V32.3155Z" fill="white"/>
</g>
</svg>
