<svg width="61" height="61" viewBox="0 0 61 61" fill="none" xmlns="http://www.w3.org/2000/svg">
<g id="logos:apple-app-store" clip-path="url(#clip0_62_2726)">
<path id="Vector" d="M13.6568 0.273438H47.3768C54.634 0.273438 60.5168 6.15625 60.5168 13.4134V47.1334C60.5168 54.3906 54.634 60.2734 47.3768 60.2734H13.6568C6.39966 60.2734 0.516846 54.3906 0.516846 47.1334V13.4134C0.516846 6.15625 6.39966 0.273438 13.6568 0.273438Z" fill="url(#paint0_linear_62_2726)"/>
<path id="Vector_2" d="M19.7454 43.8224L19.7511 43.8243L17.6996 47.3774C16.9508 48.6744 15.2923 49.1188 13.9953 48.37C12.6985 47.6212 12.2539 45.9627 13.0027 44.6657L14.514 42.0482L14.659 41.7969C14.918 41.4248 15.5572 40.7821 16.8357 40.903C16.8357 40.903 19.8444 41.2295 20.0621 42.7933C20.0621 42.7933 20.0916 43.3077 19.7454 43.8224ZM48.8415 34.7474H42.4444C42.0087 34.7181 41.8187 34.5625 41.7437 34.472L41.739 34.4638L34.8912 22.603L34.8823 22.6089L34.4717 22.0202C33.7986 20.9908 32.7298 23.6233 32.7298 23.6233C31.4537 26.5567 32.911 29.8916 33.4189 30.8997L42.9303 47.3739C43.6789 48.6707 45.3373 49.1153 46.6346 48.3662C47.9314 47.6174 48.376 45.959 47.6269 44.6619L45.2487 40.5426C45.2026 40.4427 45.1224 40.1718 45.6101 40.1706H48.8415C50.3391 40.1706 51.5532 38.9566 51.5532 37.4589C51.5532 35.9612 50.3391 34.7472 48.8415 34.7472V34.7474ZM36.4163 38.4337C36.4163 38.4337 36.7578 40.1706 35.4366 40.1706H11.7884C10.2908 40.1706 9.07669 38.9566 9.07669 37.4589C9.07669 35.9612 10.2908 34.7472 11.7884 34.7472H17.8681C18.8497 34.6905 19.0822 34.1237 19.0822 34.1237L19.0878 34.1266L27.0237 20.3809L27.0214 20.3805C27.166 20.1149 27.0455 19.8639 27.0247 19.8243L24.4037 15.2847C23.6548 13.9879 24.0992 12.3292 25.3962 11.5806C26.6933 10.8318 28.3517 11.2759 29.1005 12.573L30.316 14.6784L31.5294 12.5767C32.2782 11.2799 33.9366 10.8353 35.2337 11.5844C36.5307 12.3332 36.9751 13.9914 36.2262 15.2884L25.1829 34.4158C25.1347 34.5323 25.1199 34.7151 25.4792 34.7472H32.0801L32.0815 34.8116C32.0815 34.8116 35.8967 34.8709 36.4163 38.4337Z" fill="white"/>
</g>
<defs>
<linearGradient id="paint0_linear_62_2726" x1="30.5168" y1="0.273438" x2="30.5168" y2="60.2734" gradientUnits="userSpaceOnUse">
<stop stop-color="#17C9FB"/>
<stop offset="1" stop-color="#1A74E8"/>
</linearGradient>
<clipPath id="clip0_62_2726">
<rect width="60" height="60" fill="white" transform="translate(0.516846 0.273438)"/>
</clipPath>
</defs>
</svg>
