<svg width="61" height="71" viewBox="0 0 61 71" fill="none" xmlns="http://www.w3.org/2000/svg">
<g id="logos:android-icon" clip-path="url(#clip0_62_2739)">
<path id="Vector" d="M18.8893 0.201267C18.5458 0.203479 18.2083 0.291197 17.9072 0.456501C16.9186 1.00447 16.5561 2.27455 17.1038 3.26244L19.3358 7.29275C13.9583 10.6197 10.395 16.3028 10.395 22.7892V23.9943C9.36216 22.806 7.84411 22.0558 6.14794 22.0558C3.04013 22.0558 0.516846 24.5791 0.516846 27.6867V45.0325C0.516846 48.1399 3.04036 50.6634 6.14794 50.6634C7.84411 50.6634 9.36216 49.9129 10.3948 48.7246V51.1544C10.3948 54.4303 13.0754 57.1106 16.3512 57.1106H17.8625V64.8269C17.8625 67.9347 20.386 70.458 23.4936 70.458C26.6011 70.458 29.1244 67.9345 29.1244 64.8269V57.1106H31.7391V64.8269C31.7391 67.9347 34.2626 70.458 37.3702 70.458C40.4778 70.458 43.0011 67.9345 43.0011 64.8269V57.1106H44.5125C47.7882 57.1106 50.4687 54.4303 50.4687 51.1544V48.7246C51.5014 49.9129 53.0197 50.6634 54.7158 50.6634C57.8234 50.6634 60.3467 48.1399 60.3467 45.0325V27.6867C60.3467 24.5791 57.8234 22.0558 54.7158 22.0558C53.0197 22.0558 51.5014 22.806 50.4687 23.9943V22.9931V22.9356C50.4692 22.8747 50.4687 22.826 50.4687 22.7892C50.4687 16.304 46.8973 10.6265 41.5217 7.29931L43.76 3.26244C44.3075 2.27455 43.9451 1.00447 42.9565 0.456501C42.6555 0.291197 42.318 0.203479 41.9745 0.201267C41.2444 0.194235 40.5279 0.579079 40.1506 1.25994L37.8101 5.48806C35.5217 4.64361 33.0317 4.18072 30.432 4.18072C27.8347 4.18072 25.34 4.63869 23.0534 5.4815L20.7132 1.25994C20.3356 0.579079 19.6193 0.194704 18.8893 0.201267Z" fill="white"/>
<path id="Vector_2" d="M6.14803 23.5225C3.82912 23.5225 1.98389 25.3677 1.98389 27.6866V45.0325C1.98389 47.3514 3.82912 49.1966 6.14803 49.1966C8.46693 49.1966 10.3124 47.3514 10.3124 45.0325V27.6866C10.3124 25.3677 8.46693 23.5225 6.14803 23.5225ZM54.7162 23.5225C52.397 23.5225 50.5518 25.3677 50.5518 27.6866V45.0325C50.5518 47.3514 52.397 49.1966 54.7162 49.1966C57.0351 49.1966 58.8803 47.3514 58.8803 45.0325V27.6866C58.8803 25.3677 57.0351 23.5225 54.7162 23.5225Z" fill="#A4C639"/>
<path id="Vector_3" d="M23.4938 43.3169C21.1749 43.3169 19.3295 45.1621 19.3295 47.4813V64.8269C19.3295 67.1458 21.1749 68.991 23.4938 68.991C25.8127 68.991 27.658 67.1458 27.658 64.8269V47.4813C27.658 45.1621 25.8127 43.3169 23.4938 43.3169ZM37.3705 43.3169C35.0513 43.3169 33.2061 45.1621 33.2061 47.4813V64.8269C33.2061 67.1458 35.0513 68.991 37.3705 68.991C39.6894 68.991 41.5346 67.1458 41.5346 64.8269V47.4813C41.5346 45.1621 39.6894 43.3169 37.3705 43.3169Z" fill="#A4C639"/>
<path id="Vector_4" d="M18.9019 1.66805C18.8034 1.66924 18.7068 1.69554 18.6213 1.74446C18.3244 1.90899 18.2269 2.25024 18.3916 2.54789L21.3253 7.84735C15.6815 10.7841 11.8692 16.3648 11.8617 22.7698H49.0019C48.9942 16.3648 45.1821 10.7838 39.5383 7.84735L42.4718 2.54813C42.6368 2.25047 42.539 1.90899 42.2421 1.74446C42.1566 1.69551 42.06 1.66921 41.9615 1.66805C41.7506 1.66571 41.5512 1.77118 41.4387 1.97414L38.4668 7.33078C36.0358 6.25266 33.3091 5.64727 30.4317 5.64727C27.5543 5.64727 24.8278 6.25243 22.3966 7.33078L19.4248 1.97414C19.3741 1.88012 19.2985 1.80183 19.2063 1.74785C19.1141 1.69386 19.0089 1.66626 18.9021 1.66805H18.9019ZM11.8617 24.2365V51.1544C11.8604 51.7444 11.9757 52.3287 12.2009 52.8739C12.426 53.4192 12.7567 53.9146 13.1738 54.3317C13.591 54.7488 14.0864 55.0794 14.6316 55.3046C15.1769 55.5297 15.7612 55.645 16.3512 55.6437H44.5125C45.1024 55.645 45.6868 55.5297 46.2321 55.3046C46.7773 55.0794 47.2728 54.7488 47.6899 54.3316C48.107 53.9145 48.4377 53.4191 48.6628 52.8738C48.888 52.3285 49.0032 51.7441 49.0019 51.1542V24.2367H11.8617V24.2365Z" fill="#A4C639"/>
<path id="Vector_5" d="M21.8608 12.8726C21.0131 12.8726 20.3112 13.5743 20.3112 14.422C20.3112 15.27 21.0131 15.9717 21.8608 15.9717C22.7088 15.9717 23.4105 15.27 23.4105 14.422C23.4105 13.5743 22.7088 12.8726 21.8608 12.8726ZM39.0026 12.8726C38.1546 12.8726 37.4529 13.5743 37.4529 14.422C37.4529 15.27 38.1546 15.9717 39.0026 15.9717C39.8503 15.9717 40.5522 15.27 40.5522 14.422C40.5522 13.5743 39.8503 12.8726 39.0026 12.8726Z" fill="white"/>
</g>
<defs>
<clipPath id="clip0_62_2739">
<rect width="60" height="70.5469" fill="white" transform="translate(0.516846)"/>
</clipPath>
</defs>
</svg>
