<svg width="73" height="61" viewBox="0 0 73 61" fill="none" xmlns="http://www.w3.org/2000/svg">
<g id="logos:basecamp" clip-path="url(#clip0_62_2745)">
<path id="Vector" d="M36.6578 0.273438C17.3226 0.273438 2.17439 24.8734 0.74115 45.6509C6.80876 56.1813 21.4406 60.1396 36.6583 60.1396C51.875 60.1396 66.5076 56.1813 72.5721 45.6506C71.1386 24.8734 55.9924 0.273438 36.658 0.273438" fill="#B6DEFF"/>
<path id="Vector_2" d="M67.5196 40.7017C67.5196 40.7017 63.2492 31.469 58.9086 26.0825C54.5649 20.6938 49.2604 14.8262 46.1241 14.8262C42.9894 14.8262 34.2266 30.3411 30.2066 30.3411C26.1858 30.3411 24.0962 23.3079 19.1528 23.3079C14.2075 23.3079 6.35057 40.2681 6.35057 40.2681L5.81818 43.1434C5.81818 43.1434 8.54775 55.245 37.1038 55.245C65.661 55.245 67.9432 43.3419 67.9432 43.3419L67.5199 40.7014" fill="#66CC66"/>
<path id="Vector_3" d="M30.6542 36.962C26.2192 36.962 23.9457 32.5863 22.7131 29.8851C21.6046 27.4519 21.4128 23.6102 18.2677 23.5026C18.5767 23.3801 18.8742 23.3077 19.1531 23.3077C24.0964 23.3077 26.186 30.3409 30.2069 30.3409C34.2269 30.3409 42.9897 14.8257 46.1243 14.8257C46.715 14.8257 47.3804 15.0341 48.1023 15.4048C47.5683 15.3344 46.8835 15.3834 46.3559 15.9127C45.3426 16.9262 36.1446 36.962 30.6542 36.962Z" fill="#17AD49"/>
</g>
<defs>
<clipPath id="clip0_62_2745">
<rect width="72.1127" height="60" fill="white" transform="translate(0.516846 0.273438)"/>
</clipPath>
</defs>
</svg>
