<svg width="61" height="62" viewBox="0 0 61 62" fill="none" xmlns="http://www.w3.org/2000/svg">
<g id="logos:apiary" clip-path="url(#clip0_62_2729)">
<path id="Vector" opacity="0.5" d="M30.4448 9.56258V26.8079L45.409 18.1674V0.921875L30.4448 9.56258Z" fill="#13A049"/>
<path id="Vector_2" opacity="0.5" d="M30.4449 9.56258L15.481 0.921875V18.2033L30.4449 26.844V9.56258Z" fill="#A2CC39"/>
<path id="Vector_3" opacity="0.9" d="M45.409 0.921875L30.4449 9.56258L15.481 0.921875L0.516846 9.56258L30.4449 26.844L60.3551 9.56258L45.409 0.921875Z" fill="url(#paint0_linear_62_2729)"/>
<path id="Vector_4" d="M30.4449 26.8439L0.516846 9.5625V26.8439L15.481 35.4846V52.7482L30.4449 61.3889L45.409 52.7482V35.4846L60.3551 26.8439V9.5625L30.4449 26.8439Z" fill="url(#paint1_linear_62_2729)"/>
<path id="Vector_5" d="M30.4448 26.8439V61.3889L45.409 52.7482V35.4846L60.355 26.8439V9.5625L30.4448 26.8439Z" fill="url(#paint2_linear_62_2729)"/>
<path id="Vector_6" opacity="0.05" d="M30.4448 44.1074V61.3888L45.409 52.7481L30.4448 44.1074Z" fill="#231F20"/>
<path id="Vector_7" opacity="0.1" d="M30.4449 61.425V44.1436L15.481 52.7843L30.4449 61.425Z" fill="#231F20"/>
<path id="Vector_8" opacity="0.05" d="M15.481 18.2031L0.516846 26.8438L15.481 35.4845L30.4449 26.8438L15.481 18.2031Z" fill="#231F20"/>
<path id="Vector_9" opacity="0.05" d="M45.409 18.2031L30.4448 26.8438L45.409 35.4845L60.355 26.8438L45.409 18.2031Z" fill="#231F20"/>
</g>
<defs>
<linearGradient id="paint0_linear_62_2729" x1="60.3623" y1="13.8806" x2="0.516846" y2="13.8806" gradientUnits="userSpaceOnUse">
<stop stop-color="#37BDA6"/>
<stop offset="1" stop-color="#8AD3B8"/>
</linearGradient>
<linearGradient id="paint1_linear_62_2729" x1="60.3623" y1="35.4747" x2="0.516846" y2="35.4747" gradientUnits="userSpaceOnUse">
<stop offset="0.5" stop-color="#4BB6AD"/>
<stop offset="1" stop-color="#78BBC1"/>
</linearGradient>
<linearGradient id="paint2_linear_62_2729" x1="30.4394" y1="35.4747" x2="60.3619" y2="35.4747" gradientUnits="userSpaceOnUse">
<stop stop-color="#4379A7"/>
<stop offset="1" stop-color="#7CC9B8"/>
</linearGradient>
<clipPath id="clip0_62_2729">
<rect width="60" height="60.7031" fill="white" transform="translate(0.516846 0.921875)"/>
</clipPath>
</defs>
</svg>
