<svg width="61" height="66" viewBox="0 0 61 66" fill="none" xmlns="http://www.w3.org/2000/svg">
<g id="logos:airbnb" clip-path="url(#clip0_62_2749)">
<path id="Vector" d="M56.4201 53.2241C55.9677 56.586 53.7053 59.4951 50.5379 60.7879C48.9864 61.4336 47.3059 61.6281 45.625 61.4336C44.0092 61.24 42.3929 60.7227 40.7125 59.7541C38.3851 58.4598 36.058 56.4569 33.3433 53.4831C37.6098 48.2472 40.1947 43.4636 41.1648 39.198C41.6174 37.1938 41.6818 35.3837 41.4883 33.7028C41.23 32.087 40.648 30.5997 39.7426 29.3071C37.7387 26.3985 34.3778 24.7176 30.6285 24.7176C26.8792 24.7176 23.518 26.4632 21.5141 29.3071C20.6087 30.5999 20.0277 32.087 19.7687 33.7028C19.5104 35.3837 19.5749 37.2583 20.0922 39.1982C21.0615 43.4634 23.7116 48.3119 27.9137 53.5469C25.2634 56.5213 22.8716 58.525 20.5443 59.818C18.8638 60.7879 17.2476 61.3052 15.6318 61.4983C13.9661 61.6843 12.2801 61.4627 10.719 60.8526C7.55146 59.5598 5.28951 56.6498 4.8367 53.2886C4.6431 51.673 4.77224 50.0573 5.41865 48.2472C5.61224 47.6003 5.93591 46.9551 6.25865 46.1788C6.71146 45.145 7.22873 44.0453 7.74529 42.9461L7.81045 42.8177C12.2701 33.1855 17.054 23.3603 22.0314 13.7938L22.2252 13.4052C22.7425 12.4366 23.259 11.4027 23.7768 10.4327C24.2936 9.39812 24.8753 8.42828 25.5861 7.58734C26.9436 6.03578 28.7537 5.19555 30.7576 5.19555C32.7615 5.19555 34.5714 6.03578 35.9289 7.58758C36.64 8.42828 37.2217 9.39812 37.739 10.4329C38.2562 11.4027 38.7728 12.4366 39.2901 13.4052L39.4846 13.7938C44.3969 23.4248 49.1807 33.25 53.6408 42.8821V42.9461C54.1581 43.9806 54.6102 45.145 55.1275 46.1788C55.4509 46.9551 55.7739 47.6001 55.9675 48.2472C56.4847 49.9277 56.6786 51.5444 56.4203 53.2241H56.4201ZM30.6285 50.1857C27.1382 45.7907 24.8753 41.6533 24.0997 38.1637C23.777 36.6766 23.7116 35.3837 23.9061 34.2201C24.0351 33.1855 24.4234 32.2802 24.9397 31.5039C26.1681 29.7602 28.2365 28.6593 30.6285 28.6593C33.0203 28.6593 35.1533 29.6945 36.3168 31.5039C36.8336 32.2802 37.2217 33.1855 37.3508 34.2201C37.5447 35.3837 37.48 36.741 37.157 38.1637C36.3815 41.5893 34.1188 45.7262 30.6285 50.1857ZM59.7815 46.8248C59.4585 46.049 59.1351 45.209 58.8121 44.4979C58.2948 43.3349 57.7776 42.2352 57.325 41.2007L57.2603 41.1367C52.8006 31.4399 48.0168 21.6147 42.9747 11.92L42.7811 11.5309C42.2638 10.5613 41.7465 9.5268 41.23 8.49273C40.5831 7.32859 39.9365 6.10164 38.9026 4.93727C36.8333 2.35164 33.8605 0.929688 30.6927 0.929688C27.4607 0.929688 24.5521 2.35164 22.4186 4.80859C21.4494 5.9718 20.7383 7.19992 20.0919 8.3643C19.5747 9.39812 19.0574 10.4327 18.5404 11.4027L18.3465 11.7895C13.3696 21.4855 8.5213 31.3115 4.06091 41.0076L3.99646 41.1367C3.54365 42.1705 3.02638 43.2691 2.50912 44.4334C2.16331 45.1995 1.84012 45.9757 1.53998 46.7608C0.699274 49.1519 0.440993 51.4148 0.763961 53.7414C1.47552 58.5897 4.70755 62.6627 9.16771 64.472C10.8479 65.1836 12.5933 65.5066 14.4036 65.5066C14.9207 65.5066 15.5671 65.4419 16.0844 65.3767C18.2172 65.1177 20.4149 64.408 22.5477 63.1792C25.1985 61.6926 27.7197 59.5598 30.5636 56.4569C33.4075 59.5598 35.9933 61.6928 38.579 63.1792C40.7125 64.408 42.91 65.1177 45.043 65.3767C45.5603 65.4419 46.2067 65.5066 46.7237 65.5066C48.5338 65.5066 50.3434 65.1836 51.9597 64.472C56.4845 62.6627 59.6519 58.5252 60.3629 53.7414C60.8802 51.4785 60.6212 49.2173 59.7812 46.8245L59.7815 46.8248Z" fill="#E0565B"/>
</g>
<defs>
<clipPath id="clip0_62_2749">
<rect width="60" height="64.6875" fill="white" transform="translate(0.629517 0.929688)"/>
</clipPath>
</defs>
</svg>
