<svg width="151" height="61" viewBox="0 0 151 61" fill="none" xmlns="http://www.w3.org/2000/svg">
<g id="logos:ibm" clip-path="url(#clip0_62_2751)">
<path id="Vector" d="M0.629517 0.273438V4.37451H29.7983V0.273438H0.629517ZM33.931 0.273438V4.37451H75.4978C75.4978 4.37451 71.2519 0.273438 65.6285 0.273438H33.931ZM83.652 0.273438V4.37451H108.799L107.307 0.273438H83.652ZM126.829 0.273438L125.336 4.37451H150.255V0.273438H126.829ZM0.629517 8.24905V12.3501H29.7983V8.24905H0.629517ZM33.931 8.2549V12.3501H80.3212C80.3212 12.3501 79.7795 9.19383 78.8344 8.2549H33.931ZM83.652 8.2549V12.3501H111.556L110.175 8.2549H83.652ZM123.843 8.2549L122.462 12.3501H150.255V8.2549H123.843ZM9.01196 16.2247V20.331H21.6442V16.2247H9.01196ZM42.3134 16.2247V20.331H54.9456V16.2247H42.3134ZM67.2324 16.2247V20.331H79.8646C79.8646 20.331 80.6666 18.1622 80.6666 16.2244H67.2324V16.2247ZM92.0344 16.2247V20.331H114.43L112.938 16.2244H92.0344V16.2247ZM121.092 16.2247L119.593 20.3313H142.101V16.2247H121.092ZM9.01196 24.2061V28.3066H21.6442V24.2061H9.01196ZM42.3134 24.2061V28.3066H74.5788C74.5788 28.3066 77.2779 26.2022 78.1378 24.2055H42.3134V24.2061ZM92.0344 24.2061V28.3066H104.667V26.0237L105.469 28.3066H128.608L129.469 26.0237V28.3066H142.101V24.2061H118.388L117.129 27.68L115.865 24.2061H92.0344ZM9.01196 32.1811V36.2822H21.6442V32.1811H9.01196ZM42.3134 32.1811V36.2822H78.1378C77.2776 34.292 74.5788 32.1811 74.5788 32.1811H42.3134ZM92.0344 32.1811V36.2822H104.667V32.1811H92.0344ZM106.961 32.1811L108.489 36.2822H125.839L127.291 32.1811H106.961ZM129.469 32.1811V36.2822H142.101V32.1811H129.469ZM9.01196 40.1568V44.2578H21.6442V40.1568H9.01196ZM42.3134 40.1568V44.2578H54.9456V40.1568H42.3134ZM67.2324 40.1568V44.2578H80.6666C80.6666 42.3223 79.8646 40.1568 79.8646 40.1568H67.2324ZM92.0344 40.1568V44.2578H104.667V40.1568H92.0344ZM109.83 40.1568L111.31 44.2578H122.942L124.434 40.1568H109.83ZM129.469 40.1568V44.2578H142.101V40.1568H129.469ZM0.857809 48.1327V52.2393H30.0266V48.1324H0.857809V48.1327ZM33.931 48.1327V52.2393H78.8344C79.7795 51.2989 80.3212 48.1324 80.3212 48.1324H33.931V48.1327ZM83.8802 48.1327V52.2393H104.667V48.1324H83.8802V48.1327ZM112.704 48.1327L114.226 52.2393H120.144L121.572 48.1324H112.704V48.1327ZM129.469 48.1327V52.2393H150.483V48.1324H129.469V48.1327ZM0.857809 56.1138V60.2149H30.0266V56.1138H0.857809ZM33.931 56.1138V60.2088H65.6285C71.2519 60.2088 75.4978 56.1135 75.4978 56.1135H33.931V56.1138ZM83.8802 56.1138V60.2149H104.667V56.1138H83.8802ZM115.59 56.1138L117.053 60.2029L117.305 60.2088L118.791 56.1135H115.59V56.1138ZM129.469 56.1138V60.2149H150.483V56.1138H129.469Z" fill="#1F70C1"/>
</g>
<defs>
<clipPath id="clip0_62_2751">
<rect width="149.854" height="60" fill="white" transform="translate(0.629517 0.273438)"/>
</clipPath>
</defs>
</svg>
