<svg width="42" height="42" viewBox="0 0 42 42" fill="none" xmlns="http://www.w3.org/2000/svg">
<g id="ant-design:twitter-outlined">
<path id="Vector" d="M37.645 10.7253C36.4202 11.2537 35.0873 11.6339 33.7144 11.782C35.1398 10.9352 36.2072 9.5974 36.7164 8.01958C35.3788 8.81525 33.9136 9.37319 32.3855 9.66865C31.7469 8.98591 30.9745 8.44201 30.1165 8.07084C29.2585 7.69967 28.3332 7.50918 27.3983 7.51125C23.6159 7.51125 20.5739 10.5772 20.5739 14.3397C20.5739 14.868 20.6379 15.3964 20.742 15.9047C15.0783 15.6085 10.027 12.9027 6.66887 8.76006C6.05697 9.8052 5.73632 10.9952 5.74026 12.2063C5.74026 14.5758 6.94505 16.6652 8.78224 17.894C7.69955 17.8513 6.64222 17.5538 5.69624 17.0254V17.1095C5.69624 20.4276 8.04176 23.1774 11.1678 23.8098C10.5808 23.9623 9.97704 24.0403 9.37062 24.042C8.92633 24.042 8.50606 23.9979 8.08178 23.9379C8.94634 26.6437 11.464 28.6089 14.4619 28.673C12.1164 30.5102 9.17849 31.5909 5.98843 31.5909C5.41605 31.5909 4.88771 31.5709 4.33936 31.5068C7.36532 33.4481 10.9556 34.5688 14.8222 34.5688C27.3743 34.5688 34.2428 24.1701 34.2428 15.1442C34.2428 14.848 34.2428 14.5518 34.2227 14.2556C35.5516 13.283 36.7164 12.0782 37.645 10.7253Z" fill="white"/>
</g>
</svg>
